M48
; DRILL file {KiCad 9.0.3+dfsg-1} date 2025-12-19T19:54:44+0100
; FORMAT={-:-/ absolute / metric / decimal}
; #@! TF.CreationDate,2025-12-19T19:54:44+01:00
; #@! TF.GenerationSoftware,Kicad,Pcbnew,9.0.3+dfsg-1
; #@! TF.FileFunction,Plated,1,2,PTH
FMAT,2
METRIC
; #@! TA.AperFunction,Plated,PTH,ViaDrill
T1C0.300
; #@! TA.AperFunction,Plated,PTH,ComponentDrill
T2C0.800
; #@! TA.AperFunction,Plated,PTH,ComponentDrill
T3C1.000
; #@! TA.AperFunction,Plated,PTH,ComponentDrill
T4C1.100
; #@! TA.AperFunction,Plated,PTH,ComponentDrill
T5C1.540
; #@! TA.AperFunction,Plated,PTH,ComponentDrill
T6C2.200
%
G90
G05
T1
X72.0Y-84.125
X79.5Y-106.5
X83.49Y-76.505
X83.49Y-80.95
X93.0Y-105.0
T2
X89.0Y-115.84
X89.0Y-126.0
X93.0Y-115.84
X93.0Y-126.0
X111.0Y-115.84
X111.0Y-126.0
T3
X63.17Y-69.145
X63.17Y-71.685
X63.17Y-74.225
X63.17Y-76.765
X63.17Y-79.305
X63.17Y-81.845
X63.17Y-84.385
X63.17Y-86.925
X78.41Y-69.145
X78.41Y-71.685
X78.41Y-74.225
X78.41Y-76.765
X78.41Y-79.305
X78.41Y-81.845
X78.41Y-84.385
X78.41Y-86.925
X82.22Y-72.06
X84.76Y-72.06
X87.3Y-72.06
X88.125Y-78.235
X88.125Y-91.735
X89.84Y-72.06
X92.38Y-72.06
X96.19Y-72.06
X96.75Y-100.0
X97.46Y-120.0
X98.73Y-72.06
X100.0Y-120.0
X101.27Y-72.06
X102.54Y-120.0
X103.25Y-100.0
X103.81Y-72.06
X107.62Y-72.06
X110.16Y-72.06
X112.125Y-78.235
X112.125Y-91.735
X115.24Y-72.06
X117.78Y-72.06
T4
X57.75Y-111.75
X57.75Y-116.25
X64.25Y-111.75
X64.25Y-116.25
X65.75Y-103.75
X65.75Y-108.25
X65.75Y-119.75
X65.75Y-124.25
X72.25Y-103.75
X72.25Y-108.25
X72.25Y-119.75
X72.25Y-124.25
X73.75Y-111.75
X73.75Y-116.25
X80.25Y-111.75
X80.25Y-116.25
X127.75Y-119.75
X127.75Y-124.25
X134.25Y-119.75
X134.25Y-124.25
X135.75Y-111.75
X135.75Y-116.25
X142.25Y-111.75
X142.25Y-116.25
T5
X121.925Y-92.42
X122.225Y-69.52
X125.325Y-92.42
X132.925Y-92.42
X136.425Y-69.52
X136.425Y-92.42
T6
X58.09Y-72.06
X58.09Y-125.4
X141.91Y-72.06
X141.91Y-125.4
M30
