%TF.GenerationSoftware,KiCad,Pcbnew,9.0.3+dfsg-1*%
%TF.CreationDate,2025-12-19T19:54:46+01:00*%
%TF.ProjectId,schematics,73636865-6d61-4746-9963-732e6b696361,rev?*%
%TF.SameCoordinates,Original*%
%TF.FileFunction,Legend,Bot*%
%TF.FilePolarity,Positive*%
%FSLAX46Y46*%
G04 Gerber Fmt 4.6, Leading zero omitted, Abs format (unit mm)*
G04 Created by KiCad (PCBNEW 9.0.3+dfsg-1) date 2025-12-19 19:54:46*
%MOMM*%
%LPD*%
G01*
G04 APERTURE LIST*
%ADD10C,0.200000*%
%ADD11C,0.120000*%
%ADD12C,0.685000*%
G04 APERTURE END LIST*
D10*
X137147457Y-124400000D02*
X137099838Y-124447619D01*
X137099838Y-124447619D02*
X137052219Y-124542857D01*
X137052219Y-124542857D02*
X137052219Y-124780952D01*
X137052219Y-124780952D02*
X137099838Y-124876190D01*
X137099838Y-124876190D02*
X137147457Y-124923809D01*
X137147457Y-124923809D02*
X137242695Y-124971428D01*
X137242695Y-124971428D02*
X137337933Y-124971428D01*
X137337933Y-124971428D02*
X137480790Y-124923809D01*
X137480790Y-124923809D02*
X138052219Y-124352381D01*
X138052219Y-124352381D02*
X138052219Y-124971428D01*
X137956980Y-125400000D02*
X138004600Y-125447619D01*
X138004600Y-125447619D02*
X138052219Y-125400000D01*
X138052219Y-125400000D02*
X138004600Y-125352381D01*
X138004600Y-125352381D02*
X137956980Y-125400000D01*
X137956980Y-125400000D02*
X138052219Y-125400000D01*
X137147457Y-125828571D02*
X137099838Y-125876190D01*
X137099838Y-125876190D02*
X137052219Y-125971428D01*
X137052219Y-125971428D02*
X137052219Y-126209523D01*
X137052219Y-126209523D02*
X137099838Y-126304761D01*
X137099838Y-126304761D02*
X137147457Y-126352380D01*
X137147457Y-126352380D02*
X137242695Y-126399999D01*
X137242695Y-126399999D02*
X137337933Y-126399999D01*
X137337933Y-126399999D02*
X137480790Y-126352380D01*
X137480790Y-126352380D02*
X138052219Y-125780952D01*
X138052219Y-125780952D02*
X138052219Y-126399999D01*
X139500000Y-124300000D02*
X138313580Y-124300000D01*
X138313580Y-126500000D02*
X139500000Y-126500000D01*
X138900000Y-124300000D02*
X138900000Y-126500000D01*
X138900000Y-124300000D02*
X139130874Y-124743505D01*
X138900000Y-124300000D02*
X138669126Y-124743505D01*
X138900000Y-126500000D02*
X138669126Y-126056495D01*
X138900000Y-126500000D02*
X139130874Y-126056495D01*
X115311266Y-74334673D02*
X115311266Y-75096578D01*
X115692219Y-74715625D02*
X114930314Y-74715625D01*
X117851266Y-74334673D02*
X117851266Y-75096578D01*
X114676667Y-68837780D02*
X114676667Y-69837780D01*
X114676667Y-69837780D02*
X115057619Y-69837780D01*
X115057619Y-69837780D02*
X115152857Y-69790161D01*
X115152857Y-69790161D02*
X115200476Y-69742542D01*
X115200476Y-69742542D02*
X115248095Y-69647304D01*
X115248095Y-69647304D02*
X115248095Y-69504447D01*
X115248095Y-69504447D02*
X115200476Y-69409209D01*
X115200476Y-69409209D02*
X115152857Y-69361590D01*
X115152857Y-69361590D02*
X115057619Y-69313971D01*
X115057619Y-69313971D02*
X114676667Y-69313971D01*
X115867143Y-69837780D02*
X116057619Y-69837780D01*
X116057619Y-69837780D02*
X116152857Y-69790161D01*
X116152857Y-69790161D02*
X116248095Y-69694923D01*
X116248095Y-69694923D02*
X116295714Y-69504447D01*
X116295714Y-69504447D02*
X116295714Y-69171114D01*
X116295714Y-69171114D02*
X116248095Y-68980638D01*
X116248095Y-68980638D02*
X116152857Y-68885400D01*
X116152857Y-68885400D02*
X116057619Y-68837780D01*
X116057619Y-68837780D02*
X115867143Y-68837780D01*
X115867143Y-68837780D02*
X115771905Y-68885400D01*
X115771905Y-68885400D02*
X115676667Y-68980638D01*
X115676667Y-68980638D02*
X115629048Y-69171114D01*
X115629048Y-69171114D02*
X115629048Y-69504447D01*
X115629048Y-69504447D02*
X115676667Y-69694923D01*
X115676667Y-69694923D02*
X115771905Y-69790161D01*
X115771905Y-69790161D02*
X115867143Y-69837780D01*
X116629048Y-69837780D02*
X116867143Y-68837780D01*
X116867143Y-68837780D02*
X117057619Y-69552066D01*
X117057619Y-69552066D02*
X117248095Y-68837780D01*
X117248095Y-68837780D02*
X117486191Y-69837780D01*
X118390952Y-68837780D02*
X117819524Y-68837780D01*
X118105238Y-68837780D02*
X118105238Y-69837780D01*
X118105238Y-69837780D02*
X118010000Y-69694923D01*
X118010000Y-69694923D02*
X117914762Y-69599685D01*
X117914762Y-69599685D02*
X117819524Y-69552066D01*
X102071429Y-110858409D02*
X101928572Y-110906028D01*
X101928572Y-110906028D02*
X101880953Y-110953647D01*
X101880953Y-110953647D02*
X101833334Y-111048885D01*
X101833334Y-111048885D02*
X101833334Y-111191742D01*
X101833334Y-111191742D02*
X101880953Y-111286980D01*
X101880953Y-111286980D02*
X101928572Y-111334600D01*
X101928572Y-111334600D02*
X102023810Y-111382219D01*
X102023810Y-111382219D02*
X102404762Y-111382219D01*
X102404762Y-111382219D02*
X102404762Y-110382219D01*
X102404762Y-110382219D02*
X102071429Y-110382219D01*
X102071429Y-110382219D02*
X101976191Y-110429838D01*
X101976191Y-110429838D02*
X101928572Y-110477457D01*
X101928572Y-110477457D02*
X101880953Y-110572695D01*
X101880953Y-110572695D02*
X101880953Y-110667933D01*
X101880953Y-110667933D02*
X101928572Y-110763171D01*
X101928572Y-110763171D02*
X101976191Y-110810790D01*
X101976191Y-110810790D02*
X102071429Y-110858409D01*
X102071429Y-110858409D02*
X102404762Y-110858409D01*
X100976191Y-111382219D02*
X100976191Y-110858409D01*
X100976191Y-110858409D02*
X101023810Y-110763171D01*
X101023810Y-110763171D02*
X101119048Y-110715552D01*
X101119048Y-110715552D02*
X101309524Y-110715552D01*
X101309524Y-110715552D02*
X101404762Y-110763171D01*
X100976191Y-111334600D02*
X101071429Y-111382219D01*
X101071429Y-111382219D02*
X101309524Y-111382219D01*
X101309524Y-111382219D02*
X101404762Y-111334600D01*
X101404762Y-111334600D02*
X101452381Y-111239361D01*
X101452381Y-111239361D02*
X101452381Y-111144123D01*
X101452381Y-111144123D02*
X101404762Y-111048885D01*
X101404762Y-111048885D02*
X101309524Y-111001266D01*
X101309524Y-111001266D02*
X101071429Y-111001266D01*
X101071429Y-111001266D02*
X100976191Y-110953647D01*
X100642857Y-110715552D02*
X100261905Y-110715552D01*
X100500000Y-110382219D02*
X100500000Y-111239361D01*
X100500000Y-111239361D02*
X100452381Y-111334600D01*
X100452381Y-111334600D02*
X100357143Y-111382219D01*
X100357143Y-111382219D02*
X100261905Y-111382219D01*
X100071428Y-110715552D02*
X99690476Y-110715552D01*
X99928571Y-110382219D02*
X99928571Y-111239361D01*
X99928571Y-111239361D02*
X99880952Y-111334600D01*
X99880952Y-111334600D02*
X99785714Y-111382219D01*
X99785714Y-111382219D02*
X99690476Y-111382219D01*
X98976190Y-111334600D02*
X99071428Y-111382219D01*
X99071428Y-111382219D02*
X99261904Y-111382219D01*
X99261904Y-111382219D02*
X99357142Y-111334600D01*
X99357142Y-111334600D02*
X99404761Y-111239361D01*
X99404761Y-111239361D02*
X99404761Y-110858409D01*
X99404761Y-110858409D02*
X99357142Y-110763171D01*
X99357142Y-110763171D02*
X99261904Y-110715552D01*
X99261904Y-110715552D02*
X99071428Y-110715552D01*
X99071428Y-110715552D02*
X98976190Y-110763171D01*
X98976190Y-110763171D02*
X98928571Y-110858409D01*
X98928571Y-110858409D02*
X98928571Y-110953647D01*
X98928571Y-110953647D02*
X99404761Y-111048885D01*
X98499999Y-111382219D02*
X98499999Y-110715552D01*
X98499999Y-110906028D02*
X98452380Y-110810790D01*
X98452380Y-110810790D02*
X98404761Y-110763171D01*
X98404761Y-110763171D02*
X98309523Y-110715552D01*
X98309523Y-110715552D02*
X98214285Y-110715552D01*
X97976189Y-110715552D02*
X97738094Y-111382219D01*
X97499999Y-110715552D02*
X97738094Y-111382219D01*
X97738094Y-111382219D02*
X97833332Y-111620314D01*
X97833332Y-111620314D02*
X97880951Y-111667933D01*
X97880951Y-111667933D02*
X97976189Y-111715552D01*
X110088733Y-69785326D02*
X110088733Y-69023422D01*
X109707780Y-69404374D02*
X110469685Y-69404374D01*
X107548733Y-69785326D02*
X107548733Y-69023422D01*
X110104285Y-74758409D02*
X109961428Y-74806028D01*
X109961428Y-74806028D02*
X109913809Y-74853647D01*
X109913809Y-74853647D02*
X109866190Y-74948885D01*
X109866190Y-74948885D02*
X109866190Y-75091742D01*
X109866190Y-75091742D02*
X109913809Y-75186980D01*
X109913809Y-75186980D02*
X109961428Y-75234600D01*
X109961428Y-75234600D02*
X110056666Y-75282219D01*
X110056666Y-75282219D02*
X110437618Y-75282219D01*
X110437618Y-75282219D02*
X110437618Y-74282219D01*
X110437618Y-74282219D02*
X110104285Y-74282219D01*
X110104285Y-74282219D02*
X110009047Y-74329838D01*
X110009047Y-74329838D02*
X109961428Y-74377457D01*
X109961428Y-74377457D02*
X109913809Y-74472695D01*
X109913809Y-74472695D02*
X109913809Y-74567933D01*
X109913809Y-74567933D02*
X109961428Y-74663171D01*
X109961428Y-74663171D02*
X110009047Y-74710790D01*
X110009047Y-74710790D02*
X110104285Y-74758409D01*
X110104285Y-74758409D02*
X110437618Y-74758409D01*
X109485237Y-74996504D02*
X109009047Y-74996504D01*
X109580475Y-75282219D02*
X109247142Y-74282219D01*
X109247142Y-74282219D02*
X108913809Y-75282219D01*
X108723332Y-74282219D02*
X108151904Y-74282219D01*
X108437618Y-75282219D02*
X108437618Y-74282219D01*
X107294761Y-75282219D02*
X107866189Y-75282219D01*
X107580475Y-75282219D02*
X107580475Y-74282219D01*
X107580475Y-74282219D02*
X107675713Y-74425076D01*
X107675713Y-74425076D02*
X107770951Y-74520314D01*
X107770951Y-74520314D02*
X107866189Y-74567933D01*
X90292219Y-74271101D02*
X89816028Y-73937768D01*
X90292219Y-73699673D02*
X89292219Y-73699673D01*
X89292219Y-73699673D02*
X89292219Y-74080625D01*
X89292219Y-74080625D02*
X89339838Y-74175863D01*
X89339838Y-74175863D02*
X89387457Y-74223482D01*
X89387457Y-74223482D02*
X89482695Y-74271101D01*
X89482695Y-74271101D02*
X89625552Y-74271101D01*
X89625552Y-74271101D02*
X89720790Y-74223482D01*
X89720790Y-74223482D02*
X89768409Y-74175863D01*
X89768409Y-74175863D02*
X89816028Y-74080625D01*
X89816028Y-74080625D02*
X89816028Y-73699673D01*
X89292219Y-74604435D02*
X90292219Y-75271101D01*
X89292219Y-75271101D02*
X90292219Y-74604435D01*
X90292219Y-75652054D02*
X89292219Y-75652054D01*
X89292219Y-75652054D02*
X89292219Y-75890149D01*
X89292219Y-75890149D02*
X89339838Y-76033006D01*
X89339838Y-76033006D02*
X89435076Y-76128244D01*
X89435076Y-76128244D02*
X89530314Y-76175863D01*
X89530314Y-76175863D02*
X89720790Y-76223482D01*
X89720790Y-76223482D02*
X89863647Y-76223482D01*
X89863647Y-76223482D02*
X90054123Y-76175863D01*
X90054123Y-76175863D02*
X90149361Y-76128244D01*
X90149361Y-76128244D02*
X90244600Y-76033006D01*
X90244600Y-76033006D02*
X90292219Y-75890149D01*
X90292219Y-75890149D02*
X90292219Y-75652054D01*
X88299999Y-69742219D02*
X88299999Y-68742219D01*
X87633333Y-68742219D02*
X87442857Y-68742219D01*
X87442857Y-68742219D02*
X87347619Y-68789838D01*
X87347619Y-68789838D02*
X87252381Y-68885076D01*
X87252381Y-68885076D02*
X87204762Y-69075552D01*
X87204762Y-69075552D02*
X87204762Y-69408885D01*
X87204762Y-69408885D02*
X87252381Y-69599361D01*
X87252381Y-69599361D02*
X87347619Y-69694600D01*
X87347619Y-69694600D02*
X87442857Y-69742219D01*
X87442857Y-69742219D02*
X87633333Y-69742219D01*
X87633333Y-69742219D02*
X87728571Y-69694600D01*
X87728571Y-69694600D02*
X87823809Y-69599361D01*
X87823809Y-69599361D02*
X87871428Y-69408885D01*
X87871428Y-69408885D02*
X87871428Y-69075552D01*
X87871428Y-69075552D02*
X87823809Y-68885076D01*
X87823809Y-68885076D02*
X87728571Y-68789838D01*
X87728571Y-68789838D02*
X87633333Y-68742219D01*
X86252381Y-69742219D02*
X86823809Y-69742219D01*
X86538095Y-69742219D02*
X86538095Y-68742219D01*
X86538095Y-68742219D02*
X86633333Y-68885076D01*
X86633333Y-68885076D02*
X86728571Y-68980314D01*
X86728571Y-68980314D02*
X86823809Y-69027933D01*
X87704600Y-73652054D02*
X87752219Y-73794911D01*
X87752219Y-73794911D02*
X87752219Y-74033006D01*
X87752219Y-74033006D02*
X87704600Y-74128244D01*
X87704600Y-74128244D02*
X87656980Y-74175863D01*
X87656980Y-74175863D02*
X87561742Y-74223482D01*
X87561742Y-74223482D02*
X87466504Y-74223482D01*
X87466504Y-74223482D02*
X87371266Y-74175863D01*
X87371266Y-74175863D02*
X87323647Y-74128244D01*
X87323647Y-74128244D02*
X87276028Y-74033006D01*
X87276028Y-74033006D02*
X87228409Y-73842530D01*
X87228409Y-73842530D02*
X87180790Y-73747292D01*
X87180790Y-73747292D02*
X87133171Y-73699673D01*
X87133171Y-73699673D02*
X87037933Y-73652054D01*
X87037933Y-73652054D02*
X86942695Y-73652054D01*
X86942695Y-73652054D02*
X86847457Y-73699673D01*
X86847457Y-73699673D02*
X86799838Y-73747292D01*
X86799838Y-73747292D02*
X86752219Y-73842530D01*
X86752219Y-73842530D02*
X86752219Y-74080625D01*
X86752219Y-74080625D02*
X86799838Y-74223482D01*
X87752219Y-74652054D02*
X86752219Y-74652054D01*
X86752219Y-74652054D02*
X86752219Y-74890149D01*
X86752219Y-74890149D02*
X86799838Y-75033006D01*
X86799838Y-75033006D02*
X86895076Y-75128244D01*
X86895076Y-75128244D02*
X86990314Y-75175863D01*
X86990314Y-75175863D02*
X87180790Y-75223482D01*
X87180790Y-75223482D02*
X87323647Y-75223482D01*
X87323647Y-75223482D02*
X87514123Y-75175863D01*
X87514123Y-75175863D02*
X87609361Y-75128244D01*
X87609361Y-75128244D02*
X87704600Y-75033006D01*
X87704600Y-75033006D02*
X87752219Y-74890149D01*
X87752219Y-74890149D02*
X87752219Y-74652054D01*
X87466504Y-75604435D02*
X87466504Y-76080625D01*
X87752219Y-75509197D02*
X86752219Y-75842530D01*
X86752219Y-75842530D02*
X87752219Y-76175863D01*
X91832219Y-73556816D02*
X91832219Y-74128244D01*
X92832219Y-73842530D02*
X91832219Y-73842530D01*
X91832219Y-74366340D02*
X92832219Y-75033006D01*
X91832219Y-75033006D02*
X92832219Y-74366340D01*
X92832219Y-75413959D02*
X91832219Y-75413959D01*
X91832219Y-75413959D02*
X91832219Y-75652054D01*
X91832219Y-75652054D02*
X91879838Y-75794911D01*
X91879838Y-75794911D02*
X91975076Y-75890149D01*
X91975076Y-75890149D02*
X92070314Y-75937768D01*
X92070314Y-75937768D02*
X92260790Y-75985387D01*
X92260790Y-75985387D02*
X92403647Y-75985387D01*
X92403647Y-75985387D02*
X92594123Y-75937768D01*
X92594123Y-75937768D02*
X92689361Y-75890149D01*
X92689361Y-75890149D02*
X92784600Y-75794911D01*
X92784600Y-75794911D02*
X92832219Y-75652054D01*
X92832219Y-75652054D02*
X92832219Y-75413959D01*
X85164600Y-73652054D02*
X85212219Y-73794911D01*
X85212219Y-73794911D02*
X85212219Y-74033006D01*
X85212219Y-74033006D02*
X85164600Y-74128244D01*
X85164600Y-74128244D02*
X85116980Y-74175863D01*
X85116980Y-74175863D02*
X85021742Y-74223482D01*
X85021742Y-74223482D02*
X84926504Y-74223482D01*
X84926504Y-74223482D02*
X84831266Y-74175863D01*
X84831266Y-74175863D02*
X84783647Y-74128244D01*
X84783647Y-74128244D02*
X84736028Y-74033006D01*
X84736028Y-74033006D02*
X84688409Y-73842530D01*
X84688409Y-73842530D02*
X84640790Y-73747292D01*
X84640790Y-73747292D02*
X84593171Y-73699673D01*
X84593171Y-73699673D02*
X84497933Y-73652054D01*
X84497933Y-73652054D02*
X84402695Y-73652054D01*
X84402695Y-73652054D02*
X84307457Y-73699673D01*
X84307457Y-73699673D02*
X84259838Y-73747292D01*
X84259838Y-73747292D02*
X84212219Y-73842530D01*
X84212219Y-73842530D02*
X84212219Y-74080625D01*
X84212219Y-74080625D02*
X84259838Y-74223482D01*
X85116980Y-75223482D02*
X85164600Y-75175863D01*
X85164600Y-75175863D02*
X85212219Y-75033006D01*
X85212219Y-75033006D02*
X85212219Y-74937768D01*
X85212219Y-74937768D02*
X85164600Y-74794911D01*
X85164600Y-74794911D02*
X85069361Y-74699673D01*
X85069361Y-74699673D02*
X84974123Y-74652054D01*
X84974123Y-74652054D02*
X84783647Y-74604435D01*
X84783647Y-74604435D02*
X84640790Y-74604435D01*
X84640790Y-74604435D02*
X84450314Y-74652054D01*
X84450314Y-74652054D02*
X84355076Y-74699673D01*
X84355076Y-74699673D02*
X84259838Y-74794911D01*
X84259838Y-74794911D02*
X84212219Y-74937768D01*
X84212219Y-74937768D02*
X84212219Y-75033006D01*
X84212219Y-75033006D02*
X84259838Y-75175863D01*
X84259838Y-75175863D02*
X84307457Y-75223482D01*
X85212219Y-76128244D02*
X85212219Y-75652054D01*
X85212219Y-75652054D02*
X84212219Y-75652054D01*
D11*
%TO.C,POW1*%
X113861800Y-67903000D02*
X113861800Y-70663000D01*
X113861800Y-70663000D02*
X119161800Y-70663000D01*
X114811800Y-70893000D02*
X114811800Y-70663000D01*
X115671800Y-70893000D02*
X115671800Y-70663000D01*
X117351800Y-70975642D02*
X117351800Y-70663000D01*
X118211800Y-70975642D02*
X118211800Y-70663000D01*
X119161800Y-67903000D02*
X113861800Y-67903000D01*
X119161800Y-70663000D02*
X119161800Y-67903000D01*
D12*
X114202500Y-69290000D02*
G75*
G02*
X113517500Y-69290000I-342500J0D01*
G01*
X113517500Y-69290000D02*
G75*
G02*
X114202500Y-69290000I342500J0D01*
G01*
D10*
%TO.C,Battery*%
X75000000Y-98930000D02*
X75000000Y-123930000D01*
X80000000Y-128930000D02*
X120000000Y-128930000D01*
X120000000Y-93930000D02*
X80000000Y-93930000D01*
X125000000Y-98930000D02*
X125000000Y-123930000D01*
D11*
%TO.C,BAT1*%
X106238200Y-73457000D02*
X106238200Y-76217000D01*
X106238200Y-76217000D02*
X111538200Y-76217000D01*
X107188200Y-73144358D02*
X107188200Y-73457000D01*
X108048200Y-73144358D02*
X108048200Y-73457000D01*
X109728200Y-73227000D02*
X109728200Y-73457000D01*
X110588200Y-73227000D02*
X110588200Y-73457000D01*
X111538200Y-73457000D02*
X106238200Y-73457000D01*
X111538200Y-76217000D02*
X111538200Y-73457000D01*
D12*
X111882500Y-74830000D02*
G75*
G02*
X111197500Y-74830000I-342500J0D01*
G01*
X111197500Y-74830000D02*
G75*
G02*
X111882500Y-74830000I342500J0D01*
G01*
D10*
%TO.C,Regulator1*%
X89625000Y-78235000D02*
G75*
G02*
X86625000Y-78235000I-1500000J0D01*
G01*
X86625000Y-78235000D02*
G75*
G02*
X89625000Y-78235000I1500000J0D01*
G01*
X113625000Y-78235000D02*
G75*
G02*
X110625000Y-78235000I-1500000J0D01*
G01*
X110625000Y-78235000D02*
G75*
G02*
X113625000Y-78235000I1500000J0D01*
G01*
D11*
%TO.C,IO1*%
X80840000Y-67903000D02*
X93760000Y-67903000D01*
X80840000Y-70663000D02*
X80840000Y-67903000D01*
X81790000Y-70975642D02*
X81790000Y-70663000D01*
D10*
X82220000Y-75235000D02*
X80950000Y-75235000D01*
D11*
X82650000Y-70975642D02*
X82650000Y-70663000D01*
X84330000Y-70975642D02*
X84330000Y-70663000D01*
X85190000Y-70975642D02*
X85190000Y-70663000D01*
X86870000Y-70975642D02*
X86870000Y-70663000D01*
X87730000Y-70975642D02*
X87730000Y-70663000D01*
X89410000Y-70975642D02*
X89410000Y-70663000D01*
X90270000Y-70975642D02*
X90270000Y-70663000D01*
X91950000Y-70893000D02*
X91950000Y-70663000D01*
X92810000Y-70893000D02*
X92810000Y-70663000D01*
X93760000Y-67903000D02*
X93760000Y-70663000D01*
X93760000Y-70663000D02*
X80840000Y-70663000D01*
D10*
X81585000Y-74600000D02*
G75*
G02*
X81585000Y-75870000I635000J-635000D01*
G01*
%TD*%
M02*
