%TF.GenerationSoftware,KiCad,Pcbnew,9.0.3+dfsg-1*%
%TF.CreationDate,2025-12-19T19:54:46+01:00*%
%TF.ProjectId,schematics,73636865-6d61-4746-9963-732e6b696361,rev?*%
%TF.SameCoordinates,Original*%
%TF.FileFunction,Profile,NP*%
%FSLAX46Y46*%
G04 Gerber Fmt 4.6, Leading zero omitted, Abs format (unit mm)*
G04 Created by KiCad (PCBNEW 9.0.3+dfsg-1) date 2025-12-19 19:54:46*
%MOMM*%
%LPD*%
G01*
G04 APERTURE LIST*
%TA.AperFunction,Profile*%
%ADD10C,0.050000*%
%TD*%
G04 APERTURE END LIST*
D10*
X86030000Y-93015000D02*
X86030000Y-91745000D01*
X85395000Y-91110000D02*
X81585000Y-91110000D01*
X81585000Y-93650000D02*
X85395000Y-93650000D01*
X146990000Y-72060000D02*
X146990000Y-96190000D01*
X145720000Y-97460000D01*
X145720000Y-102540000D01*
X146990000Y-103810000D01*
X146990000Y-125400000D01*
X141910000Y-130480000D01*
X120320000Y-130480000D01*
X119050000Y-129210000D01*
X113970000Y-129210000D01*
X112700000Y-130480000D01*
X87300000Y-130480000D01*
X86030000Y-129210000D01*
X80950000Y-129210000D01*
X79680000Y-130480000D01*
X58090000Y-130480000D01*
X53010000Y-125400000D01*
X53010000Y-103810000D01*
X54280000Y-102540000D01*
X54280000Y-97460000D01*
X53010000Y-96190000D01*
X53010000Y-72060000D01*
X58090000Y-66980000D01*
X141910000Y-66980000D01*
X146990000Y-72060000D01*
X86030000Y-93015000D02*
G75*
G02*
X85395000Y-93650000I-635000J0D01*
G01*
X119050000Y-91745000D02*
X119050000Y-93015000D01*
X114605000Y-93650000D02*
G75*
G02*
X113970000Y-93015000I0J635000D01*
G01*
X85395000Y-91110000D02*
G75*
G02*
X86030000Y-91745000I0J-635000D01*
G01*
X113970000Y-91745000D02*
G75*
G02*
X114605000Y-91110000I635000J0D01*
G01*
X118415000Y-93650000D02*
X114605000Y-93650000D01*
X119050000Y-93015000D02*
G75*
G02*
X118415000Y-93650000I-635000J0D01*
G01*
X81585000Y-93650000D02*
G75*
G02*
X80950000Y-93015000I0J635000D01*
G01*
X80950000Y-91745000D02*
X80950000Y-93015000D01*
X80950000Y-91745000D02*
G75*
G02*
X81585000Y-91110000I635000J0D01*
G01*
X113970000Y-93015000D02*
X113970000Y-91745000D01*
X118415000Y-91110000D02*
G75*
G02*
X119050000Y-91745000I0J-635000D01*
G01*
X114605000Y-91110000D02*
X118415000Y-91110000D01*
M02*
